<mxfile host="app.diagrams.net" agent="Mozilla/5.0 (Macintosh; Intel Mac OS X 10_15_7) AppleWebKit/537.36 (KHTML, like Gecko) Chrome/134.0.0.0 Safari/537.36" version="26.0.14">
  <diagram name="Page-1" id="O-UyJTqRUYiOYQBV-g-c">
    <mxGraphModel dx="1224" dy="814" grid="1" gridSize="10" guides="1" tooltips="1" connect="1" arrows="1" fold="1" page="1" pageScale="1" pageWidth="850" pageHeight="1100" math="0" shadow="0">
      <root>
        <mxCell id="0" />
        <mxCell id="1" parent="0" />
        <mxCell id="p_JP02mqlRnpK97zEkqw-8" style="edgeStyle=orthogonalEdgeStyle;rounded=0;orthogonalLoop=1;jettySize=auto;html=1;" edge="1" parent="1" source="p_JP02mqlRnpK97zEkqw-2" target="p_JP02mqlRnpK97zEkqw-3">
          <mxGeometry relative="1" as="geometry" />
        </mxCell>
        <mxCell id="p_JP02mqlRnpK97zEkqw-2" value="User" style="sketch=0;outlineConnect=0;fontColor=#232F3E;gradientColor=none;fillColor=#232F3D;strokeColor=none;dashed=0;verticalLabelPosition=bottom;verticalAlign=top;align=center;html=1;fontSize=12;fontStyle=0;aspect=fixed;pointerEvents=1;shape=mxgraph.aws4.user;" vertex="1" parent="1">
          <mxGeometry x="40" y="120" width="80" height="80" as="geometry" />
        </mxCell>
        <mxCell id="p_JP02mqlRnpK97zEkqw-6" style="edgeStyle=orthogonalEdgeStyle;rounded=1;orthogonalLoop=1;jettySize=auto;html=1;curved=0;" edge="1" parent="1" source="p_JP02mqlRnpK97zEkqw-3" target="p_JP02mqlRnpK97zEkqw-5">
          <mxGeometry relative="1" as="geometry" />
        </mxCell>
        <mxCell id="p_JP02mqlRnpK97zEkqw-7" style="edgeStyle=orthogonalEdgeStyle;rounded=1;orthogonalLoop=1;jettySize=auto;html=1;curved=0;" edge="1" parent="1" source="p_JP02mqlRnpK97zEkqw-3" target="p_JP02mqlRnpK97zEkqw-4">
          <mxGeometry relative="1" as="geometry" />
        </mxCell>
        <mxCell id="p_JP02mqlRnpK97zEkqw-3" value="Agent" style="sketch=0;points=[[0,0,0],[0.25,0,0],[0.5,0,0],[0.75,0,0],[1,0,0],[0,1,0],[0.25,1,0],[0.5,1,0],[0.75,1,0],[1,1,0],[0,0.25,0],[0,0.5,0],[0,0.75,0],[1,0.25,0],[1,0.5,0],[1,0.75,0]];outlineConnect=0;fontColor=#232F3E;fillColor=#01A88D;strokeColor=#ffffff;dashed=0;verticalLabelPosition=bottom;verticalAlign=top;align=center;html=1;fontSize=12;fontStyle=0;aspect=fixed;shape=mxgraph.aws4.resourceIcon;resIcon=mxgraph.aws4.augmented_ai;" vertex="1" parent="1">
          <mxGeometry x="240" y="120" width="80" height="80" as="geometry" />
        </mxCell>
        <mxCell id="p_JP02mqlRnpK97zEkqw-4" value="Generate Media&lt;br&gt;&lt;div&gt;(Audio and Image)&lt;/div&gt;" style="sketch=0;outlineConnect=0;fontColor=#232F3E;gradientColor=none;fillColor=#232F3D;strokeColor=none;dashed=0;verticalLabelPosition=bottom;verticalAlign=top;align=center;html=1;fontSize=12;fontStyle=0;aspect=fixed;pointerEvents=1;shape=mxgraph.aws4.external_toolkit;" vertex="1" parent="1">
          <mxGeometry x="440" y="200" width="69.74" height="80" as="geometry" />
        </mxCell>
        <mxCell id="p_JP02mqlRnpK97zEkqw-5" value="Save to Database" style="sketch=0;outlineConnect=0;fontColor=#232F3E;gradientColor=none;fillColor=#232F3D;strokeColor=none;dashed=0;verticalLabelPosition=bottom;verticalAlign=top;align=center;html=1;fontSize=12;fontStyle=0;aspect=fixed;pointerEvents=1;shape=mxgraph.aws4.external_toolkit;" vertex="1" parent="1">
          <mxGeometry x="440" y="40" width="69.74" height="80" as="geometry" />
        </mxCell>
      </root>
    </mxGraphModel>
  </diagram>
</mxfile>
